<?xml version="1.0" standalone="no"?><!DOCTYPE svg PUBLIC "-//W3C//DTD SVG 1.0//EN" "http://www.w3.org/TR/2001/REC-SVG-20010904/DTD/svg10.dtd"><svg xmlns="http://www.w3.org/2000/svg" width="100%" height="100%">
<defs>
<font id="VolvoNovumWebGr-Medium" horiz-adv-x="612"><font-face
    font-family="Volvo Novum Web Gr Medium"
    units-per-em="1000"
    panose-1="2 11 6 3 4 5 2 6 2 4"
    ascent="980"
    descent="-220"
    alphabetic="0" />
<missing-glyph horiz-adv-x="1088"/>
<glyph unicode="" glyph-name="nonmarkingreturn" horiz-adv-x="259"/>
<glyph unicode=" " glyph-name="space" horiz-adv-x="254"/>
<glyph unicode="A" glyph-name="A" horiz-adv-x="682" d="M335 570q-15-62-48-159L236 252H436L384 412q-34 100-48 158h-1Zm84 112L669 0H519L469 153H204L155 0H13L263 682H419Z"/>
<glyph unicode="a" glyph-name="a" horiz-adv-x="538" d="M34 136q0 42 19 73t58 52.5 99 32T353 304v21q0 43-25.5 65.5T254 413q-43 0-81.5-17.5T103 343L45 415q44 43 101 66.5T267 505q101 0 153.5-45.5T473 327V237q0-51 0-90.5T476 0H363l-2 60h-1Q332 23 292.5 4.5T205-14Q126-14 80 26T34 136Zm319 84q-55 0-91.5-4.5t-59-13.5T170 178.5 160 143q0-31 20-47.5T236 79q33 0 60 16.5t42 44T353 199v21h0Z"/>
<glyph unicode="B" glyph-name="B" horiz-adv-x="719" d="M89 682q46 1 124.5 1.5T351 684q103 0 160-15t91-49q43-43 43-108 0-57-28-95.5T532 359q65-14 100.5-56T668 199q0-70-34-114.5T532 19 352-2Q186-2 89 0V682ZM219 398H355q58 0 86.5 7T487 429q12 12 18 27.5t6 35.5q0 35-22 57-18 18-51 24.5T335 580q-59 0-116-2V398Zm0-294q77-2 151-2 60 0 94 10t50.5 31T531 198t-15 56-47.5 32.5T370 297H219V104Z"/>
<glyph unicode="b" glyph-name="b" horiz-adv-x="603" d="M191 236q0-45 15-80t43-54 65-19q38 0 65.5 19.5T421 159t14 87q0 49-15.5 86T376 388t-66 19q-35 0-62.5-18.5t-42-53T191 253V236ZM73 706H193V524q0-54-6-95h2q24 36 64.5 56T345 505q65 0 114.5-31.5T536 383t27-136T535 110.5t-80-92T334-14q-50 0-88 19T184 61h-1L179 0H66q5 81 6 130.5T73 246V706Z"/>
<glyph unicode="C" glyph-name="C" horiz-adv-x="704" d="M674 198Q642 94 565 39T377-16q-96 0-170.5 43.5T91 152 50 340 91.5 527.5 210 653t167 45q105 0 180-52T666 496L543 461q-20 59-64 90T375 582q-55 0-97.5-29.5t-66.5-84T187 342q0-73 24.5-128t68-84T379 101q65 0 110 33t64 95l121-31Z"/>
<glyph unicode="c" glyph-name="c" horiz-adv-x="533" d="M510 135Q474 58 418.5 22T283-14q-74 0-129.5 31.5T69 107.5 40 244 70 381t86 91.5T284 505q82 0 137.5-36T503 363L394 319q-14 42-42 64t-68 22q-36 0-62.5-19T181 331t-14-85q0-48 14.5-84.5t41.5-56T287 86q40 0 68.5 21.5T401 172l109-37Z"/>
<glyph unicode="D" glyph-name="D" horiz-adv-x="742" d="M89 682q102 1 230 1 103 0 168.5-21.5T601 592q45-45 68-107.5T692 344q0-79-24-145T600 89Q553 43 487 21T324-1Q206 0 89 0V682ZM218 111q58-3 105-3 73 0 108 11.5T493 158q31 31 46.5 77T555 341q0 57-17 104t-47 77q-29 29-66 41T315 575q-68 0-97-1V111Z"/>
<glyph unicode="d" glyph-name="d" horiz-adv-x="603" d="M419 0l-2 65h-1Q393 27 351.5 6.5T258-14q-67 0-116.5 32T66 109 40 243q0 77 28 136.5T148 472t120 33q47 0 83.5-17T411 439h1q-3 38-3 85V706H529V244q0-73 0.5-120.5T532 0H419Zm-7 254q0 46-15.5 81T353 388.5 289 407q-38 0-65.5-19.5t-42-56.5T167 245q0-48 15-85t43.5-57T292 83q37 0 64.5 19T398 156t14 81v17Z"/>
<glyph unicode="E" glyph-name="E" horiz-adv-x="651" d="M89 682H581V579H219V398H534V298H219V104H598V0H89V682Z"/>
<glyph unicode="e" glyph-name="e" horiz-adv-x="563" d="M398 294q-1 35-15 62t-38.5 42T287 413t-57.5-14T190 358.5 170 294H398ZM298-14q-81 0-139 30.5T70.5 105 40 244q0 78 30.5 137.5T158 473t131 32q73 0 126-29.5T496.5 391 525 264q0-30-5-53H168q4-42 21.5-71.5T237 95t70-15q48 0 87.5 16.5T464 145l52-76Q472 28 417 7T298-14Z"/>
<glyph unicode="F" glyph-name="F" horiz-adv-x="603" d="M89 682H563V577H219V383H518V282H219V0H89V682Z"/>
<glyph unicode="f" glyph-name="f" horiz-adv-x="326" d="M91 395H11v95H91v78q-1 48 17 81t52.5 50T243 716q25 0 50-3.5t41-9.5V606q-19 5-38.5 8T260 617q-17 0-27.5-5.5t-16-18T211 559V490H318V395H211V0H91V395Z"/>
<glyph unicode="&#xfb01;" glyph-name="fi" horiz-adv-x="605" d="M91 395H11v95H91v78q-1 48 17 81t52.5 50T243 716q25 0 50-3.5t41-9.5V606q-19 5-38.5 8T260 617q-17 0-27.5-5.5t-16-18T211 559V490H318V395H211V0H91V395ZM410 557V694H532V557H410h0ZM411 0V490H531V0H411Z"/>
<glyph unicode="&#xfb02;" glyph-name="fl" horiz-adv-x="605" d="M411 706H531V0H411V706ZM91 395H11v95H91v78q-1 48 17 81t52.5 50T243 716q25 0 50-3.5t41-9.5V606q-19 5-38.5 8T260 617q-17 0-27.5-5.5t-16-18T211 559V490H318V395H211V0H91V395Z"/>
<glyph unicode="G" glyph-name="G" horiz-adv-x="767" d="M577 0V81h-1Q544 33 492.5 8.5T372-16q-93 0-167 44T90.5 153 50 339q0 104 43 186T214 652.5 391 698q97 0 169.5-34.5T680 560L579 477q-31 53-79 80T387 584q-60 0-105.5-30.5t-70-85.5T187 342q0-75 25-130t71-84.5T389 98q51 0 90 21.5T538.5 179 559 263v13H397V376H688V0H577Z"/>
<glyph unicode="g" glyph-name="g" horiz-adv-x="603" d="M412 254q0 45-15 80t-43 54-65 19q-38 0-65.5-19.5T182 332t-14-84q0-46 15-82.5T226 109t67-20q36 0 63.5 19.5T398 163t14 80v11ZM538 490q-4-41-6-102t-2-143V2q0-102-60-154T294-204q-67 0-123 18T70-131l45 89q38-33 85.5-50T296-109q57 0 85.5 25.5T410-9q0 12 1 34.5T413 63h-2q-23-33-63-51.5T258-7Q190-7 141 24T66 112.5 40 246 68.5 381 149 472.5 269 505q50 0 88-19.5T419 430h1l5 60H538Z"/>
<glyph unicode="H" glyph-name="H" horiz-adv-x="763" d="M89 682H219V410H544V682H674V0H544V298H219V0H89V682Z"/>
<glyph unicode="h" glyph-name="h" horiz-adv-x="590" d="M73 706H193V524q0-53-5-95h1q24 36 64.5 56T343 505q58 0 99-22.5t62-67T525 304V0H405V260q0 48-3 67t-10 35q-11 22-32 33.5T309 407q-23 0-43-8t-32-20q-22-22-31.5-54T193 241V0H73V706Z"/>
<glyph unicode="I" glyph-name="I" horiz-adv-x="308" d="M89 682H219V0H89V682Z"/>
<glyph unicode="i" glyph-name="i" horiz-adv-x="267" d="M72 557V694H194V557H72h0ZM73 0V490H193V0H73Z"/>
<glyph unicode="J" glyph-name="J" horiz-adv-x="556" d="M474 682V223q0-112-59-175.5T243-16q-46 0-86.5 12T84 36 31.5 109.5 6 222l128 22q6-78 31.5-112T245 98q99 0 99 123V682H474Z"/>
<glyph unicode="j" glyph-name="j" horiz-adv-x="274" d="M79 557V694H201V557H79Zm121-67V-5q0-68-16-111t-50-64T45-201q-16 0-31.5 2T-10-194v93H29q23 0 33 10T76-59.5 80 8V490H200Z"/>
<glyph unicode="K" glyph-name="K" horiz-adv-x="698" d="M687 682L440 436 702 0H548L347 343 219 215V0H89V682H219V371L520 682H687Z"/>
<glyph unicode="k" glyph-name="k" horiz-adv-x="549" d="M73 706H193V296L381 490H534L355 319 556 0H410L266 234l-73-70V0H73V706Z"/>
<glyph unicode="L" glyph-name="L" horiz-adv-x="561" d="M89 682H219V112H545V0H89V682Z"/>
<glyph unicode="l" glyph-name="l" horiz-adv-x="267" d="M73 706H193V0H73V706Z"/>
<glyph unicode="M" glyph-name="M" horiz-adv-x="959" d="M89 682H304L419 373q25-64 40-108.5T482 184h2q8 38 22.5 83T545 373L660 682H870V0H740V240q0 115 1.5 201.5T745 578h-4q-14-48-29.5-91.5T674 385L533 0H418L277 385q-25 66-40 109.5T211 578h-5q2-50 3.5-137T211 240V0H89V682Z"/>
<glyph unicode="m" glyph-name="m" horiz-adv-x="914" d="M729 0V260q0 48-3 67t-11 35q-11 22-31.5 33.5T634 407q-22 0-41.5-8T561 379q-21-21-30.5-53T521 241V0H401V260q0 48-3 67t-10 35q-11 22-31.5 33.5T307 407q-22 0-42-8t-32-20q-21-21-30.5-53T193 241V0H73V240q0 42 0 77t-0.5 64.5-1 56T70 490H183l2-65h1q25 38 65 59t90 21q56 0 96.5-22.5T499 417q30 45 72.5 66.5T669 505q87 0 133.5-51T849 304V0H729Z"/>
<glyph unicode="N" glyph-name="N" horiz-adv-x="771" d="M521 0L301 364q-24 38-48 80.5T206 532h-3q3-54 5.5-144.5T211 217V0H89V682H261L470 337q21-33 43.5-72.5T565 169h2q-3 57-5 148.5T560 484V682H682V0H521Z"/>
<glyph unicode="n" glyph-name="n" horiz-adv-x="590" d="M405 0V260q0 48-3 67t-10 35q-11 22-32 33.5T309 407q-23 0-43-8t-32-20q-22-22-31.5-54T193 241V0H73V240q0 42 0 77t-0.5 64.5-1 56T70 490H183l2-65h1q24 38 65 59t92 21q89 0 135.5-51T525 304V0H405Z"/>
<glyph unicode="O" glyph-name="O" horiz-adv-x="787" d="M737 343q0-106-44-188T570.5 28.5 392-16Q290-16 212 28T92 153 50 339q0 106 43.5 188T216 653.5 395 698q102 0 180-44T695 529t42-186Zm-138-2q0 73-25 127.5t-71.5 84T393 582q-61 0-108-29t-72.5-83.5T187 341q0-73 25.5-127.5t72-84T393 100q63 0 109.5 29T574 213t25 128Z"/>
<glyph unicode="o" glyph-name="o" horiz-adv-x="584" d="M544 246q0-77-31-136.5T424.5 18 290-14 156 17 69.5 106.5 40 244q0 78 31 137t88.5 91.5T294 505t134-31.5 86.5-90T544 246Zm-127-1q0 48-15 84t-43.5 55.5T292 404q-39 0-67-20t-43-56-15-83 15-83.5 43.5-56T292 86q39 0 67 20t43 56 15 83Z"/>
<glyph unicode="P" glyph-name="P" horiz-adv-x="666" d="M89 682q136 1 272 2 99 0 163-25t95.5-74.5T651 462q0-72-33.5-122t-100-76T354 238q-90 0-135 1V0H89V682ZM514 460q0 40-16.5 65.5t-51 37.5T358 575q-96 0-139-1V347q44-1 139-1 54 0 88.5 12.5t51 37.5T514 460Z"/>
<glyph unicode="p" glyph-name="p" horiz-adv-x="603" d="M73-192V246q0 61-0.5 124T70 490H183l2-65h1q24 39 65.5 59.5T345 505q65 0 114.5-31.5T536 383t27-136T535 110.5t-80-92T334-14q-46 0-83 17T191 51h-1q3-37 3-85V-192H73ZM191 236q0-46 15.5-81T250 101.5 314 83q38 0 65.5 19.5T421 159t14 87q0 49-15.5 86T376 388t-66 19q-35 0-62.5-18.5t-42-53T191 253V236Z"/>
<glyph unicode="Q" glyph-name="Q" horiz-adv-x="787" d="M737 343q0-71-19.5-131T661 105l66-66L651-38 579 33Q538 8 490.5-4T392-16Q290-16 212 28T92 153 50 339q0 106 43.5 188T216 653.5 395 698q102 0 180-44T695 529t42-186ZM490 276l77-77q16 29 24 64.5t8 77.5q0 73-25 127.5t-71.5 84T393 582q-61 0-108-29t-72.5-83.5T187 341q0-73 25.5-127.5t72-84T393 100q28 0 52.5 6T490 122l-77 78 77 76Z"/>
<glyph unicode="q" glyph-name="q" horiz-adv-x="603" d="M412 254q0 45-15 80t-43 54-65 19q-38 0-65.5-19.5T182 331t-14-86q0-48 15-85t43-57 67-20q36 0 63.5 19T398 156t14 81v17Zm-2-446V-34q0 54 6 96h-2Q390 25 349.5 5.5T258-14q-67 0-116.5 32T66 109 40 243q0 77 28 136.5T148 472t121 33q50 0 88-19.5T419 430h1l5 60H537q-7-137-7-236V-192H410Z"/>
<glyph unicode="R" glyph-name="R" horiz-adv-x="703" d="M219 360q23-1 53.5-1.5T360 358q49 0 82.5 12t50 36.5T509 470q0 36-16 59t-49 34.5T361 575q-46 0-82.5-0.5T219 574V360ZM519 0L344 251H219V0H89V682q37 0 137 1t141 1q90 0 152.5-24T614 589t32-117q0-76-41.5-127.5T485 271L680 0H519Z"/>
<glyph unicode="r" glyph-name="r" horiz-adv-x="379" d="M73 0V240q0 133-1.5 188.5T70 490H183l3-88h1q29 52 67.5 77T341 504q21 0 27-1V380q-8 1-29 1-31 0-56.5-9.5T240 345q-26-25-36.5-61T193 166V0H73Z"/>
<glyph unicode="S" glyph-name="S" horiz-adv-x="673" d="M104 188q56-47 119-72T348 91q43 0 74 11t47 31.5T485 181q0 26-14.5 44t-44 31T301 289.5 158 337 89 404.5 67 501q0 58 32 103t91.5 69.5T327 698q64 0 128-19.5T578 620L524 518q-46 37-97 55T324 591q-40 0-67.5-9.5T215 554t-14-42 14-41.5T257.5 441 382 409t144-47.5T597 292t23-100q0-60-34-107.5t-97-74T346-16q-79 0-156.5 27T48 88l56 100Z"/>
<glyph unicode="s" glyph-name="s" horiz-adv-x="510" d="M85 145q41-32 87-48.5T263 80q42 0 63.5 13.5T348 133q0 16-9.5 27t-29 18.5-87 21.5-102 34T70 284 54 355q0 46 24.5 80t70 52T253 505q50 0 100.5-14.5T444 450l-46-84q-31 23-69.5 35.5T251 414q-23 0-40-5.5t-26-16T176 367t9-26 28.5-19 87-21.5T403 267t51.5-50.5T471 144q0-47-25-83T373 5.5 262-14Q203-14 146 4T36 58l49 87Z"/>
<glyph unicode="T" glyph-name="T" horiz-adv-x="538" d="M203 573H-5V682H543V573H335V0H203V573Z"/>
<glyph unicode="t" glyph-name="t" horiz-adv-x="363" d="M14 394v96H92V642l120 24V490H336V394H212V201q0-40 1.5-58.5T218 115t9-16q7-7 16-9.5T267 87q19 0 38 3t31 8V3Q318-5 291-9.5T237-14q-53 0-84.5 16.5T106.5 54 92 146V394H14Z"/>
<glyph unicode="U" glyph-name="U" horiz-adv-x="739" d="M212 274q0-56 19-95t55-59 87-20q52 0 88 19.5T515.5 178 534 274V682H657V267q0-86-34-150.5T524.5 18 371-16q-92 0-156.5 33T116 113 82 262V682H212V274Z"/>
<glyph unicode="u" glyph-name="u" horiz-adv-x="585" d="M402 0l-2 65h-1Q375 27 334.5 6.5T245-14q-59 0-99.5 23.5T85 77.5 65 186V490H185V230q0-47 3-66.5T198 128q11-21 31.5-33T278 83q22 0 42 8t32 20q21 21 30.5 53t9.5 85V490H512V242q0-61 0.5-109.5T515 0H402Z"/>
<glyph unicode="V" glyph-name="V" horiz-adv-x="646" d="M247 0L4 682H149L263 337q26-78 40-123.5T326 132h2q17 61 31 107.5T390 338L500 682H642L398 0H247Z"/>
<glyph unicode="v" glyph-name="v" horiz-adv-x="515" d="M189 0L4 490H140l68-198q16-48 30.5-96.5T260 117h3q6 28 20 75.5T314 292l64 198H511L326 0H189Z"/>
<glyph unicode="W" glyph-name="W" horiz-adv-x="1057" d="M221 0L24 682H170l81-317q19-74 34-133.5T309 133h3q13 55 28.5 112.5T375 365l90 317H601l91-317q27-89 42-142.5T757 133h3q9 39 29.5 122T817 368l81 314h135L836 0H672L569 339q-18 67-26.5 101T529 500h-3q-6-36-21.5-92.5T486 339L385 0H221Z"/>
<glyph unicode="w" glyph-name="w" horiz-adv-x="828" d="M515 0L453 192q-16 55-25 87.5T413 340h-2q-6-28-14-60t-25-88L312 0H179L13 490H144l69-218q11-36 21-73t19-76h2q9 42 18 77.5T293 273l67 217H473l67-214q13-41 23.5-79T583 123h2q8 37 18 75t22 78l61 214H814L649 0H515Z"/>
<glyph unicode="X" glyph-name="X" horiz-adv-x="622" d="M233 355L20 682H177L315 458 457 682H602L390 360 624 0H467L308 257 144 0H-3L233 355Z"/>
<glyph unicode="x" glyph-name="x" horiz-adv-x="510" d="M0 0L179 260 18 490H163l97-146 94 146H491L328 257 510 0H362L248 171 140 0H0Z"/>
<glyph unicode="Y" glyph-name="Y" horiz-adv-x="634" d="M252 0V280L0 682H157L321 408 483 682H634L382 280V0H252Z"/>
<glyph unicode="y" glyph-name="y" horiz-adv-x="515" d="M121-192L209 0H188L4 490H140l68-198q16-48 30.5-96.5T260 117h3q6 25 19.5 71.5T314 292l64 198H511L255-192H121Z"/>
<glyph unicode="Z" glyph-name="Z" horiz-adv-x="628" d="M590 0H38V110L411 574q-74-1-226-1H53V682H575V573L201 109q150 2 209 2H590V0Z"/>
<glyph unicode="z" glyph-name="z" horiz-adv-x="515" d="M469 0H45V99L302 394q-34-1-62.5-1T164 393H56v97H456V393L200 98q37 1 67 1t81 0H469V0Z"/>
<glyph unicode="&#x391;" glyph-name="Alpha" horiz-adv-x="682" d="M335 570q-15-62-48-159L236 252H436L384 412q-34 100-48 158h-1Zm84 112L669 0H519L469 153H204L155 0H13L263 682H419Z"/>
<glyph unicode="&#x3b1;" glyph-name="alpha" horiz-adv-x="616" d="M608 1q-34-15-79-15-33 0-56.5 8.5T435.5 21 418 66h-1Q392 27 350.5 6.5T258-14q-67 0-116 32T66.5 108.5 40 243q0 77 28 136.5T148 472t120 33q50 0 88.5-19.5T419 430h1l4 60H536q-7-136-7-236V150q0-37 8-50t29-13q19 0 42 9V1ZM412 254q0 45-15 80t-43 54-65 19q-38 0-65.5-19.5t-42-56.5T167 245q0-48 15-85t43.5-57T292 83q55 0 87.5 41.5T412 237v17Z"/>
<glyph unicode="&#x386;" glyph-name="Alphatonos" horiz-adv-x="682" d="M335 570q-15-62-48-159L236 252H436L384 412q-34 100-48 158h-1Zm84 112L669 0H519L469 153H204L155 0H13L263 682H419ZM54 730H180L123 524H23L54 730Z"/>
<glyph unicode="&#x3ac;" glyph-name="alphatonos" horiz-adv-x="616" d="M608 1q-34-15-79-15-33 0-56.5 8.5T435.5 21 418 66h-1Q392 27 350.5 6.5T258-14q-67 0-116 32T66.5 108.5 40 243q0 77 28 136.5T148 472t120 33q50 0 88.5-19.5T419 430h1l4 60H536q-7-136-7-236V150q0-37 8-50t29-13q19 0 42 9V1ZM412 254q0 45-15 80t-43 54-65 19q-38 0-65.5-19.5t-42-56.5T167 245q0-48 15-85t43.5-57T292 83q55 0 87.5 41.5T412 237v17ZM260 700H389L340 554H236l24 146Z"/>
<glyph unicode="&#x392;" glyph-name="Beta" horiz-adv-x="719" d="M89 682q46 1 124.5 1.5T351 684q103 0 160-15t91-49q43-43 43-108 0-57-28-95.5T532 359q65-14 100.5-56T668 199q0-70-34-114.5T532 19 352-2Q186-2 89 0V682ZM219 398H355q58 0 86.5 7T487 429q12 12 18 27.5t6 35.5q0 35-22 57-18 18-51 24.5T335 580q-59 0-116-2V398Zm0-294q77-2 151-2 60 0 94 10t50.5 31T531 198t-15 56-47.5 32.5T370 297H219V104Z"/>
<glyph unicode="&#x3b2;" glyph-name="beta" horiz-adv-x="581" d="M73-192V497q0 67 25.5 116.5t73.5 76T287 716q66 0 115.5-23t76-66T505 526q0-50-25-88.5T411 382v-2q61-17 94.5-62.5T539 204q0-64-26-114T437.5 13 324-14q-43 0-77.5 14T192 40h-1q2-30 2-79V-192H73ZM193 209q0-38 13-66.5t38.5-44T304 83t58.5 15.5 37 42.5T412 203q0 40-14 67.5T357 312t-67 14H258v92h25q29 0 50.5 12.5t33 35.5T378 518q0 31-12 53.5T333 606t-47 12q-30 0-50.5-12.5T204 567t-11-64V209Z"/>
<glyph unicode="&#x393;" glyph-name="Gamma" horiz-adv-x="525" d="M89 682H518V573H219V0H89V682Z"/>
<glyph unicode="&#x3b3;" glyph-name="gamma" horiz-adv-x="522" d="M197-192V5L4 490H141l70-193q40-109 57-173h2q46 98 68 189t25 177H490q-6-118-45.5-231T317 4V-192H197Z"/>
<glyph unicode="&#x394;" glyph-name="Delta" horiz-adv-x="680" d="M173 104H498L399 383q-52 140-64 187h-2q-13-51-62-186L173 104ZM643 0H36V94L261 682H420L643 95V0Z"/>
<glyph unicode="&#x3b4;" glyph-name="delta" horiz-adv-x="584" d="M448 578q-33 22-69.5 33T305 622q-36 0-55-13t-19-37 17-38 45-24.5T358.5 487 428 458q59-31 87.5-86T544 242q0-76-31.5-134.5t-89-90T290-14 157 16.5t-87 88T40 239q0 75 32 130.5T157 452q-20 18-36.5 47.5T104 571q0 39 22.5 73t66 52.5T299 716q52 0 102-12t91-34l-44-92ZM257 402q-42-19-66-59.5T167 241q0-47 16-82.5t44-54T292 86q38 0 66.5 19.5T402 160t15 80q0 50-19.5 82.5t-51 48T257 402Z"/>
<glyph unicode="&#x395;" glyph-name="Epsilon" horiz-adv-x="651" d="M89 682H581V579H219V398H534V298H219V104H598V0H89V682Z"/>
<glyph unicode="&#x3b5;" glyph-name="epsilon" horiz-adv-x="509" d="M365 208H280q-41 0-64.5-6.5t-34-20T171 147q0-22 12.5-37.5T221 87t62-7q46 0 84.5 17T433 147l72-73Q462 31 403.5 8.5T271-14Q197-15 145.5 3T67 56.5 40 143q0 25 11.5 48T84 230t48 22v2q-21 6-37 21T70 310.5 61 356q0 46 24.5 79.5t73 51.5T276 505q66 0 123.5-21T499 425l-73-72q-27 29-64.5 44.5T283 413q-30 0-51-6.5t-32.5-20T188 353t11.5-33.5 32-20.5 50.5-7h83V208Z"/>
<glyph unicode="&#x388;" glyph-name="Epsilontonos" horiz-adv-x="726" d="M165 682H657V579H295V398H610V298H295V104H674V0H165V682ZM-1 730H125L68 524H-32L-1 730Z"/>
<glyph unicode="&#x3ad;" glyph-name="epsilontonos" horiz-adv-x="509" d="M365 208H280q-41 0-64.5-6.5t-34-20T171 147q0-22 12.5-37.5T221 87t62-7q46 0 84.5 17T433 147l72-73Q462 31 403.5 8.5T271-14Q197-15 145.5 3T67 56.5 40 143q0 25 11.5 48T84 230t48 22v2q-21 6-37 21T70 310.5 61 356q0 46 24.5 79.5t73 51.5T276 505q66 0 123.5-21T499 425l-73-72q-27 29-64.5 44.5T283 413q-30 0-51-6.5t-32.5-20T188 353t11.5-33.5 32-20.5 50.5-7h83V208ZM244 700H373L324 554H220l24 146Z"/>
<glyph unicode="&#x396;" glyph-name="Zeta" horiz-adv-x="628" d="M590 0H38V110L411 574q-74-1-226-1H53V682H575V573L201 109q150 2 209 2H590V0Z"/>
<glyph unicode="&#x3b6;" glyph-name="zeta" horiz-adv-x="437" d="M72 706H425V608q-53-41-101.5-90t-84-99-54-95T167 241q0-32 6.5-52.5T196 152q17-17 67-31.5t70-23 36-19T398 55q39-41 39-106 0-60-36-152L284-181q26 71 26 118 0 12-4.5 23T293-20Q278-5 230.5 9t-68 22.5T125.5 51 95 75q-27 27-41 65T40 223q0 48 15.5 97t46 97.5 75 95.5T278 606q-66-6-130-6H72V706Z"/>
<glyph unicode="&#x397;" glyph-name="Eta" horiz-adv-x="763" d="M89 682H219V410H544V682H674V0H544V298H219V0H89V682Z"/>
<glyph unicode="&#x3b7;" glyph-name="eta" horiz-adv-x="590" d="M405-192V260q0 48-3 67.5T392 362q-11 22-32 33.5T309 407q-23 0-43-8t-32-20q-22-22-31.5-54T193 241V0H73V240q0 120-3 250H183l2-65h1q24 38 65 59t92 21q89 0 135.5-51T525 304V-192H405Z"/>
<glyph unicode="&#x389;" glyph-name="Etatonos" horiz-adv-x="838" d="M165 682H295V410H620V682H750V0H620V298H295V0H165V682ZM-1 730H125L68 524H-32L-1 730Z"/>
<glyph unicode="&#x3ae;" glyph-name="etatonos" horiz-adv-x="590" d="M405-192V260q0 48-3 67.5T392 362q-11 22-32 33.5T309 407q-23 0-43-8t-32-20q-22-22-31.5-54T193 241V0H73V240q0 120-3 250H183l2-65h1q24 38 65 59t92 21q89 0 135.5-51T525 304V-192H405ZM269 700H398L349 554H245l24 146Z"/>
<glyph unicode="&#x398;" glyph-name="Theta" horiz-adv-x="787" d="M279 297V397H508V297H279Zm320 44q0 74-25 128.5T502 553 393 582q-61 0-107.5-28.5T213 470 187 341q0-73 25.5-128t72-84T393 100t108.5 29 72 83.5T599 341Zm138 2q0-106-43.5-188T571 28.5 392-16Q291-16 213 27.5T92.5 151.5 50 339q0 106 43.5 188T216 653.5 395 698q101 0 179-43.5t120.5-124T737 343Z"/>
<glyph unicode="&#x3b8;" glyph-name="theta" horiz-adv-x="580" d="M539 356q0-89-16.5-158.5T473.5 81t-79-71T289-14Q228-14 182 9.5T104.5 79t-47 113.5T42 348q0 89 17 158t49.5 115.5T188 692t107 24q59 0 104.5-23t77-69 47-113.5T539 356ZM292 84q38 0 64.5 25.5T398 186t18 126H163q3-75 19-126t44-76.5T292 84Zm0 534q-37 0-64-24.5T185 522 164 406H415q-4 69-19.5 116.5T354 594t-62 24Z"/>
<glyph unicode="&#x399;" glyph-name="Iota" horiz-adv-x="308" d="M89 682H219V0H89V682Z"/>
<glyph unicode="&#x3b9;" glyph-name="iota" horiz-adv-x="276" d="M268 1q-36-15-79-15-63 0-91.5 32.5T69 122V490H189V150q0-38 8-50.5T226 87q16 0 42 9V1Z"/>
<glyph unicode="&#x38a;" glyph-name="Iotatonos" horiz-adv-x="383" d="M165 682H295V0H165V682ZM-1 730H125L68 524H-32L-1 730Z"/>
<glyph unicode="&#x3af;" glyph-name="iotatonos" horiz-adv-x="276" d="M268 1q-36-15-79-15-63 0-91.5 32.5T69 122V490H189V150q0-38 8-50.5T226 87q16 0 42 9V1ZM95 698H224L175 552H71L95 698Z"/>
<glyph unicode="&#x3aa;" glyph-name="Iotadieresis" horiz-adv-x="308" d="M89 682H219V0H89V682Zm122 64V879H334V746H211Zm-238 0V879H96V746H-27Z"/>
<glyph unicode="&#x3ca;" glyph-name="iotadieresis" horiz-adv-x="276" d="M268 1q-36-15-79-15-63 0-91.5 32.5T69 122V490H189V150q0-38 8-50.5T226 87q16 0 42 9V1ZM161 559V692H270V559H161Zm-172 0V692H98V559H-11Z"/>
<glyph unicode="&#x390;" glyph-name="iotadieresistonos" horiz-adv-x="276" d="M268 1q-36-15-79-15-63 0-91.5 32.5T69 122V490H189V150q0-38 8-50.5T226 87q16 0 42 9V1ZM-49 559V692H54V559H-49Zm284 0V692H338V559H235ZM101 724H218L174 559H83l18 165Z"/>
<glyph unicode="&#x39a;" glyph-name="Kappa" horiz-adv-x="698" d="M687 682L440 436 702 0H548L347 343 219 215V0H89V682H219V371L520 682H687Z"/>
<glyph unicode="&#x3ba;" glyph-name="kappa" horiz-adv-x="548" d="M73 490H193V278L385 490H533L351 303 555 0H410L267 216l-74-76V0H73V490Z"/>
<glyph unicode="&#x39b;" glyph-name="Lambda" horiz-adv-x="663" d="M408 682L650 0H506L389 351q-46 137-60 199h-3q-15-62-59-200L155 0H13L256 682H408Z"/>
<glyph unicode="&#x3bb;" glyph-name="lambda" horiz-adv-x="516" d="M512 0H376L308 198q-41 120-54 169h-2q-15-63-51-169L138 0H5L192 501l-19 45q-12 31-22 45.5t-21.5 20T98 617q-26 0-52-10v97q29 12 65 12 51 0 85-16t59-50.5T304 550L512 0Z"/>
<glyph unicode="&#x39c;" glyph-name="Mu" horiz-adv-x="959" d="M89 682H304L419 373q25-64 40-108.5T482 184h2q8 38 22.5 83T545 373L660 682H870V0H740V240q0 115 1.5 201.5T745 578h-4q-14-48-29.5-91.5T674 385L533 0H418L277 385q-25 66-40 109.5T211 578h-5q2-50 3.5-137T211 240V0H89V682Z"/>
<glyph unicode="&#x3bc;" glyph-name="mu" horiz-adv-x="594" d="M73-192V490H193V230q0-48 3-67t11-35q10-22 30.5-33.5T286 83q22 0 41.5 7.5T361 111q21 21 30 52.5t9 85.5V490H520V242q0-128 1.5-182.5T523 0H410l-2 65h-1Q384 28 346 7.5T264-13q-51 0-77 26h-1q3-41 6-83l6-122H73Z"/>
<glyph unicode="&#x39d;" glyph-name="Nu" horiz-adv-x="771" d="M521 0L301 364q-24 38-48 80.5T206 532h-3q3-54 5.5-144.5T211 217V0H89V682H261L470 337q21-33 43.5-72.5T565 169h2q-3 57-5 148.5T560 484V682H682V0H521Z"/>
<glyph unicode="&#x3bd;" glyph-name="nu" horiz-adv-x="522" d="M211 297q45-125 57-173h2q44 94 67 185.5T363 490H490q-4-79-23-155.5T411.5 178 314 0H200L4 490H141l70-193Z"/>
<glyph unicode="&#x39e;" glyph-name="Xi" horiz-adv-x="562" d="M487 287H75V407H487V287ZM50 562V682H512V562H50ZM527 120V0H35V120H527Z"/>
<glyph unicode="&#x3be;" glyph-name="xi" horiz-adv-x="480" d="M375 330H291q-38 0-65.5-13.5t-42-37.5T169 226q0-22 7.5-41T197 153q13-12 32.5-21t72-22 79-25T425 55q20-20 29.5-46.5T464-51q0-58-36-152L311-181q26 73 26 118 0 26-17 43-7 7-21.5 13t-66 18.5T150 39 97 75q-26 26-40.5 62.5T42 215q0 39 15 73t43 57.5T166 379v2q-27 11-48.5 32.5t-33 50T73 525q0 57 27 100.5t77 67T292 716q46 0 91-15t77-41l-62-84q-21 21-47.5 32.5T295 620q-43 0-69.5-26.5T199 525q0-45 29.5-71.5T309 427h66V330Z"/>
<glyph unicode="&#x39f;" glyph-name="Omicron" horiz-adv-x="787" d="M737 343q0-106-44-188T570.5 28.5 392-16Q290-16 212 28T92 153 50 339q0 106 43.5 188T216 653.5 395 698q102 0 180-44T695 529t42-186Zm-138-2q0 73-25 127.5t-71.5 84T393 582q-61 0-108-29t-72.5-83.5T187 341q0-73 25.5-127.5t72-84T393 100q63 0 109.5 29T574 213t25 128Z"/>
<glyph unicode="&#x3bf;" glyph-name="omicron" horiz-adv-x="584" d="M544 246q0-77-31-136.5T424.5 18 290-14 156 17 69.5 106.5 40 244q0 78 31 137t88.5 91.5T294 505t134-31.5 86.5-90T544 246Zm-127-1q0 48-15 84t-43.5 55.5T292 404q-39 0-67-20t-43-56-15-83 15-83.5 43.5-56T292 86q39 0 67 20t43 56 15 83Z"/>
<glyph unicode="&#x38c;" glyph-name="Omicrontonos" horiz-adv-x="835" d="M785 343q0-106-44-188T618.5 28.5 440-16Q338-16 260 28T140 153 98 339q0 106 43.5 188T264 653.5 443 698q102 0 180-44T743 529t42-186Zm-138-2q0 73-25 127.5t-71.5 84T441 582q-61 0-108-29t-72.5-83.5T235 341q0-73 25.5-127.5t72-84T441 100q63 0 109.5 29T622 213t25 128ZM13 730H139L82 524H-18L13 730Z"/>
<glyph unicode="&#x3cc;" glyph-name="omicrontonos" horiz-adv-x="584" d="M260 698H389L340 552H236l24 146ZM544 246q0-77-31-136.5T424.5 18 290-14 156 17 69.5 106.5 40 244q0 78 31 137t88.5 91.5T294 505t134-31.5 86.5-90T544 246Zm-127-1q0 48-15 84t-43.5 55.5T292 404q-39 0-67-20t-43-56-15-83 15-83.5 43.5-56T292 86q39 0 67 20t43 56 15 83Z"/>
<glyph unicode="&#x3a0;" glyph-name="Pi" horiz-adv-x="754" d="M89 682H665V0H535V574H219V0H89V682Z"/>
<glyph unicode="&#x3c0;" glyph-name="pi" horiz-adv-x="641" d="M598 383H498l13-174q4-50 11-74.5T541 99t34-11q19 0 32 5V-3q-30-10-66-10-53 0-85.5 19T408 65.5 389 183L379 383H243L202 0H80l43 383H37V490H598V383Z"/>
<glyph unicode="&#x3a1;" glyph-name="Rho" horiz-adv-x="666" d="M89 682q136 1 272 2 99 0 163-25t95.5-74.5T651 462q0-72-33.5-122t-100-76T354 238q-90 0-135 1V0H89V682ZM514 460q0 40-16.5 65.5t-51 37.5T358 575q-96 0-139-1V347q44-1 139-1 54 0 88.5 12.5t51 37.5T514 460Z"/>
<glyph unicode="&#x3c1;" glyph-name="rho" horiz-adv-x="594" d="M180 245q0-49 15.5-85.5t43.5-56T303 84q40 0 68 20t42 56 14 85q0 50-16 87t-44 55.5T302 406t-64.5-19T195 331.5 180 245ZM61-192V253q0 77 29.5 133.5T176 474t130 31q78 0 134-32t85-91 29-136q0-74-28.5-134T444 19 322-14q-46 0-83 17.5T179 53h-1q3-38 3-86V-192H61Z"/>
<glyph unicode="&#x3a3;" glyph-name="Sigma" horiz-adv-x="626" d="M588 0H58V110L273 341 58 573V682H571V573H422q-89 0-200 1L438 342 222 109q105 2 182 2H588V0Z"/>
<glyph unicode="&#x3c3;" glyph-name="sigma" horiz-adv-x="606" d="M590 383H540q-24 0-46 3l-1-2q25-26 38-61t13-79q0-75-31-134.5T424.5 18 290-14q-78 0-134.5 31t-86 89.5T40 244 71.5 382t89 91T294 505q28 0 76.5-7.5T479 490H590V383ZM417 245q0 48-15 84t-43.5 55.5T292 404t-66-19-43.5-55T167 245q0-47 15-83.5t43.5-56T292 86q39 0 67 20t43 56 15 83Z"/>
<glyph unicode="&#x3c2;" glyph-name="sigma1" horiz-adv-x="496" d="M315-181q26 71 26 118 0 26-17 43-7 7-21 12.5T239 8 159 31.5 109 65q-34 35-51.5 82.5T40 255q0 76 29 132.5t82 87T272 505q72 0 124-34.5T475 372L372 323q-13 40-38.5 61T271 405q-32 0-55.5-18t-36-51T167 258q0-36 9.5-64.5T204 147q12-12 30.5-19.5t70-18 78.5-23T429 55q21-21 30.5-47T469-51q0-57-37-152L315-181Z"/>
<glyph unicode="&#x3a4;" glyph-name="Tau" horiz-adv-x="538" d="M203 573H-5V682H543V573H335V0H203V573Z"/>
<glyph unicode="&#x3c4;" glyph-name="tau" horiz-adv-x="435" d="M253 383V198q0-62 5.5-80T277 93.5 317 87q31 0 60 11V3q-44-17-97-17T194.5 2.5t-48 52T131 151q0 80 7 232H16V490H419V383H253Z"/>
<glyph unicode="&#x3a5;" glyph-name="Upsilon" horiz-adv-x="634" d="M252 0V280L0 682H157L321 408 483 682H634L382 280V0H252Z"/>
<glyph unicode="&#x3c5;" glyph-name="upsilon" horiz-adv-x="576" d="M185 234q0-49 3-68t10-34q12-24 34-35t56-11q30 0 51.5 10T373 125q10 16 14 36t4 63V490H511V206q0-55-14.5-96T454 41 384-0.5 286-14 188.5-0.5 119.5 40t-41 68T65 204V490H185V234Z"/>
<glyph unicode="&#x38e;" glyph-name="Upsilontonos" horiz-adv-x="783" d="M401 0V280L149 682H306L470 408 632 682H783L531 280V0H401ZM7 730H133L76 524H-24L7 730Z"/>
<glyph unicode="&#x3cd;" glyph-name="upsilontonos" horiz-adv-x="576" d="M185 234q0-49 3-68t10-34q12-24 34-35t56-11q30 0 51.5 10T373 125q10 16 14 36t4 63V490H511V206q0-55-14.5-96T454 41 384-0.5 286-14 188.5-0.5 119.5 40t-41 68T65 204V490H185V234Zm72 464H386L337 552H233l24 146Z"/>
<glyph unicode="&#x3ab;" glyph-name="Upsilondieresis" horiz-adv-x="634" d="M252 0V280L0 682H157L321 408 483 682H634L382 280V0H252ZM374 746V879H497V746H374Zm-238 0V879H259V746H136Z"/>
<glyph unicode="&#x3cb;" glyph-name="upsilondieresis" horiz-adv-x="576" d="M185 234q0-49 3-68t10-34q12-24 34-35t56-11q30 0 51.5 10T373 125q10 16 14 36t4 63V490H511V206q0-55-14.5-96T454 41 384-0.5 286-14 188.5-0.5 119.5 40t-41 68T65 204V490H185V234ZM332 559V692H447V559H332Zm-204 0V692H243V559H128Z"/>
<glyph unicode="&#x3b0;" glyph-name="upsilondieresistonos" horiz-adv-x="576" d="M185 234q0-49 3-68t10-34q12-24 34-35t56-11q30 0 51.5 10T373 125q10 16 14 36t4 63V490H511V206q0-55-14.5-96T454 41 384-0.5 286-14 188.5-0.5 119.5 40t-41 68T65 204V490H185V234ZM94 559V692H197V559H94Zm284 0V692H481V559H378ZM244 724H361L317 559H226l18 165Z"/>
<glyph unicode="&#x3a6;" glyph-name="Phi" horiz-adv-x="955" d="M911 343q0-96-42-165T744 69 542 20V-55H412V20Q292 28 209.5 67T85.5 174.5 44 339 86.5 504t125 108.5T412 661v76H542V662q121-8 203.5-47t124-107.5T911 343ZM415 124V557q-78-7-130-32.5t-78-71T181 341q0-68 26-113.5t77.5-71T415 124Zm124 0q79 7 131.5 33t78 72T774 341q0 67-25.5 112.5T671 525 539 558V124Z"/>
<glyph unicode="&#x3c6;" glyph-name="phi" horiz-adv-x="787" d="M333-192V-11Q239-5 173 26.5t-99.5 87T40 243q0 75 35.5 131.5t102 89T333 501V706H453V501q94-6 160-36.5t100.5-86T748 248 712 116 609.5 26.5 453-11V-192H333Zm2 599q-55-3-92.5-21.5T186 332t-19-87q0-50 19-85t56-54 93-22V407ZM452 84q55 3 93 21.5T601.5 159 620 245q0 52-19 87t-56.5 53.5T452 407V84Z"/>
<glyph unicode="&#x3a7;" glyph-name="Chi" horiz-adv-x="622" d="M233 355L20 682H177L315 458 457 682H602L390 360 624 0H467L308 257 144 0H-3L233 355Z"/>
<glyph unicode="&#x3c7;" glyph-name="chi" horiz-adv-x="519" d="M332 158L520-192H375L252 57 141-192H1L186 164 13 490H155L265 264 367 490H504L332 158Z"/>
<glyph unicode="&#x3a8;" glyph-name="Psi" horiz-adv-x="916" d="M394 682H524V259q63 7 104 28.5t61.5 59T710 439V682H834V430q0-82-35.5-141T694 196.5 524 155V0H394V155q-104 8-173.5 43t-104 95.5T82 439V682H212V451q0-60 19.5-100T291 288.5 394 259V682Z"/>
<glyph unicode="&#x3c8;" glyph-name="psi" horiz-adv-x="816" d="M473-192H353V-12Q254-5 190.5 25.5T96.5 113 66 258V490H186V262q0-56 18-92.5t54.5-57T353 86V706H473V86q58 8 95.5 32t56 64.5T643 281q0 103-28 209H744q13-47 19.5-100.5T770 283q0-92-33-155T638 30.5 473-12V-192Z"/>
<glyph unicode="&#x3a9;" glyph-name="Omega" horiz-adv-x="796" d="M58 0V108H223v2q-78 47-119 117.5T63 386q0 91 43 162.5T226 659t174 39q99 0 174.5-38.5T691.5 550 733 386q0-85-41.5-156.5T574 110v-2H739V0H453V145q73 42 108 98t35 131q0 61-24 108.5T503 556 398 582 293 556t-68.5-73T201 374q0-76 35-131.5T344 145V0H58Z"/>
<glyph unicode="&#x3c9;" glyph-name="omega" horiz-adv-x="849" d="M485 334V209q0-38 11.5-66t33-42.5T579 86q32 0 55 17.5T669 155t12 84q0 49-14 85.5t-42 59T556 413l32 94q67-5 117-38.5t77-92T809 241q0-80-26-138T708.5 15.5 595-14q-40 0-76 13.5t-60.5 39T425 97h-2q-8-33-32.5-58t-60-39T255-14q-69 0-117 30.5t-73 88T40 241q0 77 27 135.5t77 92T261 507l32-94q-42-7-69-28t-41-57.5T169 239q0-49 11.5-83T215 104t55-18q30 0 51.5 15.5t32.5 43T365 209V334H485Z"/>
<glyph unicode="&#x38f;" glyph-name="Omegatonos" horiz-adv-x="846" d="M108 0V108H273v2q-78 47-119 117.5T113 386q0 91 43 162.5T276 659t174 39q99 0 174.5-38.5T741.5 550 783 386q0-85-41.5-156.5T624 110v-2H789V0H503V145q73 42 108 98t35 131q0 61-24 108.5T553 556 448 582 343 556t-68.5-73T251 374q0-76 35-131.5T394 145V0H108ZM13 730H139L82 524H-18L13 730Z"/>
<glyph unicode="&#x3ce;" glyph-name="omegatonos" horiz-adv-x="849" d="M485 334V209q0-38 11.5-66t33-42.5T579 86q32 0 55 17.5T669 155t12 84q0 49-14 85.5t-42 59T556 413l32 94q67-5 117-38.5t77-92T809 241q0-80-26-138T708.5 15.5 595-14q-40 0-76 13.5t-60.5 39T425 97h-2q-8-33-32.5-58t-60-39T255-14q-69 0-117 30.5t-73 88T40 241q0 77 27 135.5t77 92T261 507l32-94q-42-7-69-28t-41-57.5T169 239q0-49 11.5-83T215 104t55-18q30 0 51.5 15.5t32.5 43T365 209V334H485ZM409 698H538L475 512H378l31 186Z"/>
<glyph unicode="`" glyph-name="grave" horiz-adv-x="356" d="M298 552H188L58 698H215l83-146Z"/>
<glyph unicode="&#xb4;" glyph-name="acute" horiz-adv-x="366" d="M147 698H303L173 552H63l84 146Z"/>
<glyph unicode="&#xa8;" glyph-name="dieresis" horiz-adv-x="460" d="M274 559V692H389V559H274ZM70 559V692H185V559H70Z"/>
<glyph unicode="&#x2c9;" glyph-name="macron" horiz-adv-x="452" d="M382 572H70v97H382V572Z"/>
<glyph unicode="&#xb8;" glyph-name="cedilla" horiz-adv-x="306" d="M69-192q25 23 36.5 40.5T117-121q0 11-8.5 20.5T75-76L122 5h97L192-41q23-17 33.5-34T236-113q0-19-14-40.5T186-192H69Z"/>
<glyph unicode="&#x384;" glyph-name="tonos" horiz-adv-x="294" d="M94 698H223L174 552H70L94 698Z"/>
<glyph unicode="&#x385;" glyph-name="dieresistonos" horiz-adv-x="527" d="M70 559V692H173V559H70Zm284 0V692H457V559H354ZM220 724H337L293 559H202l18 165Z"/>
<glyph unicode="&#x387;" glyph-name="anoteleia" horiz-adv-x="291" d="M72 336V490H219V336H72Z"/>
<glyph unicode="&#xaa;" glyph-name="ordfeminine" horiz-adv-x="512" d="M69 161v89H433V161H69ZM332 536q-49 0-82-4t-53-12.5-28.5-21T160 467q0-27 17.5-42T228 410q29 0 53 14.5t37.5 39T332 517v19Zm105-68q0-28 1-58.5t3-68.5H341l-2 53q-26-32-61-49t-78-17q-46 0-80 16T67.5 390 49 461q0 37 16.5 65t51 46 88 28T332 610v19q-1 39-23 58.5T244 707q-38 0-70-15t-64-47L58 708q47 42 94.5 61T255 788q89 0 135.5-40T437 630V468Z"/>
<glyph unicode="&#xba;" glyph-name="ordmasculine" horiz-adv-x="545" d="M69 161v89H476V161H69ZM496 559q0-69-28-121.5t-79-81T271 328q-69 0-119.5 28T75 435.5 49 557q0 69 28 121.5t79 81T274 788q68 0 118.5-27t77-79T496 559Zm-112-1q0 43-14 75.5T330.5 683 272 700q-34 0-59.5-17.5t-38.5-50T161 558t13.5-74.5 38.5-50T272 416q35 0 60.5 17.5t38.5 50T384 558Z"/>
<glyph unicode="!" glyph-name="exclam" horiz-adv-x="362" d="M123 213L108 706H254L239 213H123ZM111 0V148H251V0H111Z"/>
<glyph unicode="&#xa1;" glyph-name="exclamdown" horiz-adv-x="362" d="M239 397L254-96H108l15 493H239Zm12 213V462H111V610H251Z"/>
<glyph unicode="?" glyph-name="question" horiz-adv-x="631" d="M264 273q-1 27 6.5 49.5t24 42 55.5 47 53 43T423.5 487t6.5 37q0 26-14.5 46.5t-41 32.5T314 615q-35 0-62-14t-41.5-38.5T196 507q0-16 1.5-30t3.5-23H73q-3 10-5 23.5T66 504q0 65 31 114t88.5 75.5T319 720q75 0 131.5-24.5T537 627t30-99q0-36-10-65.5t-30.5-54-62-52.5-54-39.5-19-24.5T385 265l-2-52H266l-2 60ZM254 0V148H394V0H254Z"/>
<glyph unicode="&#xbf;" glyph-name="questiondown" horiz-adv-x="631" d="M367 337q1-27-6.5-49.5t-24-42-55-47-52.5-43T208 123t-7-37q0-26 14.5-46.5T256.5 7 317-5q36 0 63 14t41 38.5T435 103q-2 44-5 53H559q2-10 6-50 0-65-30.5-114T446-83.5 312-110q-74 0-131 24.5T94-17 64 82q0 36 10 65.5t31 54T167.5 254 221 293.5 239.5 318t7.5 27l1 52H366l1-60Zm10 273V462H237V610H377Z"/>
<glyph unicode="," glyph-name="comma" horiz-adv-x="292" d="M220 165V27q0-75-12.5-114T166-151.5 81-201L51-133q33 20 47.5 35.5t20.5 36T125 0H72V165H220Z"/>
<glyph unicode=";" glyph-name="semicolon" horiz-adv-x="323" d="M90 330V490H233V330H90ZM233 160V27q0-75-12-113.5T180-151 94-200L64-132q31 18 46 33t21.5 37T138 0H90V160H233Z"/>
<glyph unicode="&#x37e;" glyph-name="uni037E" horiz-adv-x="323" d="M90 330V490H233V330H90ZM233 160V27q0-75-12-113.5T180-151 94-200L64-132q31 18 46 33t21.5 37T138 0H90V160H233Z"/>
<glyph unicode=":" glyph-name="colon" horiz-adv-x="323" d="M90 330V490H233V330H90ZM90 0V160H233V0H90Z"/>
<glyph unicode="." glyph-name="period" horiz-adv-x="292" d="M72 0V165H220V0H72Z"/>
<glyph unicode="&#x2026;" glyph-name="ellipsis" horiz-adv-x="921" d="M701 0V165H850V0H701ZM386 0V165H535V0H386ZM72 0V165H220V0H72Z"/>
<glyph unicode="&#x2018;" glyph-name="quoteleft" horiz-adv-x="292" d="M72 483V615q0 63 12 100t40.5 63.5T208 829l30-68q-31-19-45.5-34.5t-20.5-34T166 642h54V483H72Z"/>
<glyph unicode="&#x2019;" glyph-name="quoteright" horiz-adv-x="292" d="M220 803V671q0-65-12.5-102.5t-41-62.5T83 458L53 525q34 21 47.5 36t19 33 5.5 50H72V803H220Z"/>
<glyph unicode="&#x201c;" glyph-name="quotedblleft" horiz-adv-x="502" d="M72 483V615q0 63 11.5 100.5T122 780t76 49l30-68q-33-21-46.5-36t-19-33.5T157 642h52V483H72Zm220 0V615q0 65 12.5 103T344 782t75 47l29-68q-32-21-45.5-36t-19-33.5T378 642h52V483H292Z"/>
<glyph unicode="&#x201d;" glyph-name="quotedblright" horiz-adv-x="502" d="M430 803V671q0-63-12-101.5T379.5 505 304 458l-30 67q31 19 45 34.5t19.5 34T344 644H292V803H430Zm-221 0V671q0-63-11.5-101.5T159 505 83 458L53 525q31 19 45 34.5t20 34 6 50.5H72V803H209Z"/>
<glyph unicode="&#x201a;" glyph-name="quotesinglbase" horiz-adv-x="292" d="M220 159V27q0-65-12.5-102.5t-41-62.5T83-186L53-119q34 21 47.5 36t19 33T125 0H72V159H220Z"/>
<glyph unicode="&#x201e;" glyph-name="quotedblbase" horiz-adv-x="502" d="M430 159V27q0-63-12-101.5T379.5-139 304-186l-30 67q31 19 45 34.5t19.5 34T344 0H292V159H430Zm-221 0V27q0-63-11.5-101.5T159-139 83-186L53-119q31 19 45 34.5t20 34T124 0H72V159H209Z"/>
<glyph unicode="&#x2039;" glyph-name="guilsinglleft" horiz-adv-x="409" d="M230 36L65 279 231 521l99-47L214 280 329 85 230 36Z"/>
<glyph unicode="&#x203a;" glyph-name="guilsinglright" horiz-adv-x="409" d="M179 522L344 279 177 36 79 83 195 277 80 472l99 50Z"/>
<glyph unicode="&#xab;" glyph-name="guillemotleft" horiz-adv-x="666" d="M488 52L333 279 489 506l98-48L482 280 587 101 488 52ZM230 36L65 279 231 521l99-47L214 280 329 85 230 36Z"/>
<glyph unicode="&#xbb;" glyph-name="guillemotright" horiz-adv-x="666" d="M179 506L333 279 177 52 80 100 185 278 80 457l99 49Zm257 16L601 279 435 37 337 84 453 278 337 473l99 49Z"/>
<glyph unicode="/" glyph-name="slash" horiz-adv-x="433" d="M-49-152L331 778H459L79-152H-49Z"/>
<glyph unicode="|" glyph-name="bar" horiz-adv-x="329" d="M105-176V820H224V-176H105Z"/>
<glyph unicode="&#xa6;" glyph-name="brokenbar" horiz-adv-x="329" d="M105-176V230H224V-176H105Zm0 590V820H224V414H105Z"/>
<glyph unicode="\" glyph-name="backslash" horiz-adv-x="433" d="M354-152L-26 778H101L482-152H354Z"/>
<glyph unicode="&#x2010;" glyph-name="hyphen" horiz-adv-x="369" d="M40 220V338H329V220H40Z"/>
<glyph unicode="&#x2013;" glyph-name="endash" horiz-adv-x="650" d="M597 225H53V333H597V225Z"/>
<glyph unicode="&#x2014;" glyph-name="emdash" horiz-adv-x="977" d="M935 225H41V333H935V225Z"/>
<glyph unicode="_" glyph-name="underscore" horiz-adv-x="650" d="M650-204H0v101H650V-204Z"/>
<glyph unicode="&#x2022;" glyph-name="bullet" horiz-adv-x="427" d="M361 323q0-40-20.5-75t-55-54.5T212 174q-40 0-74 20T85 248 66 321q0 40 20.5 75T141 450.5 214 470q41 0 75-20t53-54 19-73Z"/>
<glyph unicode="&#x2219;" glyph-name="periodcentered" horiz-adv-x="291" d="M72 245V399H219V245H72Z"/>
<glyph unicode="(" glyph-name="parenleft" horiz-adv-x="341" d="M205-176Q137-67 101 60T65 321t36 262T205 820H334Q264 707 227.5 581T191 323q0-133 35.5-257T333-176H205Z"/>
<glyph unicode=")" glyph-name="parenright" horiz-adv-x="341" d="M136 820q68-109 104-236t36-261q0-90-16.5-177t-48-168.5T136-176H7Q77-63 113.5 63T150 321q0 133-36 257T8 820H136Z"/>
<glyph unicode="[" glyph-name="bracketleft" horiz-adv-x="392" d="M361-176H89V820H361V720H206V-76H361V-176Z"/>
<glyph unicode="]" glyph-name="bracketright" horiz-adv-x="392" d="M31-176V-76H187V720H31V820H304V-176H31Z"/>
<glyph unicode="{" glyph-name="braceleft" horiz-adv-x="440" d="M30 371H61q34 0 48.5 8.5t21 31T137 481V623q0 69 19.5 112T218 799t111 21h80V720H330q-31 0-47-9.5T260.5 680 254 623V484q0-51-8-83t-25-50-46-27v-1q29-10 46-27.5T246 246t8-82V22q0-39 7.5-59.5T286-67t45-9h78V-176H327q-68 0-109.5 20t-61 63T137 19V161q0 48-7 71t-22.5 32T59 273H30v98Z"/>
<glyph unicode="}" glyph-name="braceright" horiz-adv-x="440" d="M31-176V-76h80q28 0 44 8.5t24 29T187 21V160q0 51 7.5 83T219 293t46 27v1q-29 10-46 27.5T194.5 398 187 480V622q0 39-8 59.5T154.5 711 109 720H31V820h83q68 0 109-20t61-62.5T304 625V483q0-48 6.5-71t22-32 48.5-9h29V273H380q-34 0-49-8.5t-21-31T304 163V21q0-71-21-114t-62.5-63T112-176H31Z"/>
<glyph unicode="*" glyph-name="asterisk" horiz-adv-x="507" d="M292 577l147 63 33-101L316 503 421 383l-85-62L253 457 171 321 85 383 190 503 34 539 68 640l146-63L201 737H306L292 577Z"/>
<glyph unicode="&#x2020;" glyph-name="dagger" horiz-adv-x="526" d="M203 98V514H41V614H203V784H323V614H485V514H323V98H203Z"/>
<glyph unicode="&#x2021;" glyph-name="daggerdbl" horiz-adv-x="526" d="M485 239H323V64H203V239H41V339H203V514H41V614H203V784H323V614H485V514H323V339H485V239Z"/>
<glyph unicode="&#xa7;" glyph-name="section" horiz-adv-x="633" d="M458 263q0 23-13 39.5t-39.5 29T320 359t-82 23q-27-18-41.5-41T182 290q0-23 13.5-40t41-30T322 192.5 403 171q27 19 41 42t14 50ZM61 280q0 44 24.5 82T153 425q-25 21-38 50.5T102 542q0 38 14.5 70T160 667.5t70 36T322 716q57 0 110.5-16.5T529 652l-49-95q-34 28-75.5 43.5T319 616q-46 0-70.5-17T224 551q0-21 12.5-36T274 488.5 379 456t120.5-44.5T560 354t20-81q0-43-24-80.5T489 129q27-21 41-51t14-68q0-37-15.5-69t-45-55.5-71-36T321-163q-61 0-119 20T95-85l52 95q39-34 86-53t91-19q49 0 73 16T421 2q0 21-12.5 36T371 64.5 264.5 97 142 141.5 81 199 61 280Z"/>
<glyph unicode="&#xb6;" glyph-name="paragraph" horiz-adv-x="752" d="M547-192V574H446V-192H331V215H305q-81 0-139.5 28.5t-89 82T46 451q0 75 33 127t94.5 78.5T320 683q26 0 87.5-0.5T499 682H663V-192H547Z"/>
<glyph unicode="^" glyph-name="asciicircum" horiz-adv-x="650" d="M446 347q-44 79-74 137T324 586h-1q-18-44-48-102T201 347H54L257 682H393L596 347H446Z"/>
<glyph unicode="~" glyph-name="asciitilde" horiz-adv-x="650" d="M58 224q0 68 18.5 114.5T131 409t90 24q40 0 73.5-15T362 367.5t47-43 26-7.5q18 0 28.5 11t15 34 4.5 58H592q0-68-18.5-114.5T519 235t-90-24q-40 0-73.5 15T288 276.5t-47 43T215 327q-18 0-28-11t-15-33.5T167 224H58Z"/>
<glyph unicode="&apos;" glyph-name="quotesingle" horiz-adv-x="272" d="M82 449L72 730H200l-9-281H82Z"/>
<glyph unicode="&quot;" glyph-name="quotedbl" horiz-adv-x="479" d="M292 449l-9 281H407L397 449H292ZM82 449L72 730H197L187 449H82Z"/>
<glyph unicode="&amp;" glyph-name="ampersand" horiz-adv-x="789" d="M226 545q0-26 16-52t52-59q18 7 45 20t45 27 26.5 30 8.5 35q0 34-27 54t-71 20q-45 0-70-20t-25-55ZM321 84q89 0 157 54-70 52-125 94t-98 79q-43-25-62.5-53T173 196q0-53 39-82.5T321 84ZM41 189q0 64 33 110.5T178 383q-42 45-61 81T98 540q0 54 27.5 95t79 63T326 720q69 0 119-20.5T521 641t26-87q0-34-12.5-61.5t-37.5-51-60-43T372 366q35-27 78.5-60.5T552 231q17 36 26 77t9 87H708q0-65-16-123.5T645 164L779 70 707-23Q613 42 567 74 516 31 451.5 7.5T314-16Q187-16 114 38.5T41 189Z"/>
<glyph unicode="@" glyph-name="at" horiz-adv-x="1040" d="M598 300q0 49-21.5 73T512 397q-36 0-62.5-21t-41-58.5T394 236q0-52 20-77.5T476 133q38 0 65 21.5T583 216t15 84Zm392 37q0-87-31-155.5t-88-105T739 40q-57 0-89.5 18T606 114h-1q-25-36-65-55T453 40q-88 0-134 48T273 227q0 72 28 134t79.5 95T500 489q44 0 75-15t49-43h1l10 49H752L708 247q-8-44-6.5-68t12-35T749 133q41 0 71 24.5t46 69T882 329q0 90-39.5 158.5T728 592 551 628q-114 0-203-49T208.5 441.5 158 247q0-102 43-181T324-56 510-99q58 0 119.5 8.5T746-65l13-89q-55-17-121.5-26T504-189q-135 0-238 54T106.5 18 50 243q0 132 65.5 241.5T296.5 656 555 718q125 0 225-49.5t155-136T990 337Z"/>
<glyph unicode="&#xa9;" glyph-name="copyright" horiz-adv-x="935" d="M676 250q-26-62-80-96.5T472 119q-66 0-116 27t-76 77.5T254 340q0 67 27 118.5t78 79T476 565q70 0 120.5-31.5T671 443l-93-44q-14 35-41 53t-63 18q-31 0-54-15t-35.5-44T372 341q0-37 12.5-66.5t36-45T476 214q37 0 64 19.5T582 291l94-41Zm96 90q0 91-38 163T627 615 469 655q-91 0-161-40T200.5 503 163 340q0-90 38-162T308 66 467 26 627 66 734.5 178 772 340Zm109 4q0-116-53.5-211T679-15.5 466-69Q347-69 253-16.5T106.5 129 54 338t53.5 211 149 148T470 750q119 0 213-52T829 552.5 881 344Z"/>
<glyph unicode="&#xae;" glyph-name="registered" horiz-adv-x="724" d="M316 547q15-1 51-1 27 0 39.5 9.5T419 585q0 13-5.5 20.5t-17 10.5T368 619H316V547Zm98-160L358 488H316V387H237V678q70 1 134 1 45 0 74-10.5t43-31T502 587t-17.5-52T436 501l72-114H414ZM576 527q0 62-27 113.5t-76 81T362 751 251 721.5t-76-81T148 527q0-64 28-115.5t76.5-80T362 303q62 0 111 29.5t76 81T576 527Zm74 2q0-79-38-146T507.5 278 360 240q-80 0-145.5 37t-103 102.5T74 525q0 79 38 146T216.5 776 364 814t146.5-37.5T613 673.5 650 529Z"/>
<glyph unicode="&#x2122;" glyph-name="trademark" horiz-adv-x="978" d="M403 682H562l69-184q6-16 12.5-38T656 413h2q5 20 12 42.5T684 498l69 184H907V313H814V442q0 88 0 115.5t1 49.5h-2q-8-27-16-51t-16-44L702 313H605L527 513q-8 20-16.5 44.5T494 607h-3q1-21 1.5-49T493 442V313H403V682ZM136 600H21v82H350V600H236V313H136V600Z"/>
<glyph unicode="&#xb0;" glyph-name="degree" horiz-adv-x="436" d="M396 610q0-46-21.5-82T312 471.5 217 451q-53 0-93 19T62 524.5 40 608q0 45 21.5 81T124 745.5 219 766q55 0 95-20t61-55 21-81Zm-103-1q0 34-20 54t-55 20-54.5-20T144 609q0-35 19.5-55T218 534q36 0 55.5 20T293 609Z"/>
<glyph unicode="&#xa4;" glyph-name="currency" horiz-adv-x="662" d="M431 322q0 51-27 81.5T330 434q-48 0-75-31t-27-81q0-51 27.5-81.5T330 210q48 0 74.5 30.5T431 322Zm109 2q0-62-27-107l96-93L534 49 438 151q-46-26-110-26-63 0-108 25L125 50 50 124l96 91q-26 43-26 105t27 107L50 520l75 75 97-102q49 26 110 26 62 0 108-25l94 101 75-75-96-91q27-46 27-105Z"/>
<glyph unicode="&#x20ac;" glyph-name="Euro" horiz-adv-x="720" d="M458 217H258q22-63 63.5-93T424 94q49 0 90.5 20T586 171l77-77Q619 41 557 12.5T422-16Q307-16 228 44T119 217H28v87h79q-2 18-2 36 0 19 2 37H28v88h92q30 110 112 171.5T426 698q68 0 126-24.5T653 601l-77-84q-30 36-68.5 54.5T424 590q-60 0-102.5-32.5T259 465H458V377H242q-1-16-1-35 0-26 1-38H458V217Z"/>
<glyph unicode="$" glyph-name="dollar" horiz-adv-x="676" d="M277-104V10q-65 9-117 33T61 109l55 98q55-47 113.5-71.5T347 111q58 0 92 24t34 63q0 23-13.5 39.5t-41 27.5T301 292.5t-135 41-66.5 63T78 489q0 75 53.5 124.5T277 675V791H390V674q53-8 96-25.5T566 602L514 500q-47 37-95.5 55.5T321 574q-52 0-80.5-20T212 500q0-23 13.5-39T266 434.5 383.5 407t136-42 67-64T608 207q0-79-60.5-133T390 9V-104H277Z"/>
<glyph unicode="&#xa2;" glyph-name="cent" horiz-adv-x="566" d="M353 693V581q54-11 94.5-43T511 454L408 406q-18 41-45 60.5T299 486q-53 0-83.5-38.5T185 343q0-67 31-105.5T302 199q43 0 71 20.5T419 283l96-42q-22-56-63-90t-99-46V-10H246V103q-90 14-139 76.5T58 341q0 96 50.5 160.5T246 581V693H353Z"/>
<glyph unicode="&#xa3;" glyph-name="sterling" horiz-adv-x="650" d="M591 0H66V92q58 38 80 67.5T168 227q0 19-6 48H58v98h79q-12 39-17 68t-5 53q0 62 28.5 108t82 71T352 698q85 0 143-39t92-119L478 485q-18 52-50 78t-78 26q-31 0-53.5-12.5t-34-35T251 490q0-28 9-62t15-55H456V275H299q6-30 6-47 0-35-15-62t-45-50v-3q117 3 193 3H591V0Z"/>
<glyph unicode="&#xa5;" glyph-name="yen" horiz-adv-x="650" d="M262 0V84H99v88H262v69H99v88H262v20L20 682H181l78-118q27-40 71-101 41 58 68 100l77 119H630L388 349V329H551V241H388V172H551V84H388V0H262Z"/>
<glyph unicode="&#x20b4;" glyph-name="uni20B4" horiz-adv-x="650" d="M608 472V385H477q-32-28-66.5-49T366 309H608V222H259q-7-12-11-24.5T244 172q0-43 27-65t79-22q45 0 84.5 17.5T510 156l51-88Q519 28 458.5 6T334-16Q229-16 169 32.5T109 166q0 14 2.5 28t7.5 28H42v87H184q26 22 65.5 46T299 385H42v87H398q6 11 8.5 21t2.5 21q0 40-26 61.5T310 597q-39 0-75-15t-66-44l-50 91q40 33 94.5 51T327 698q100 0 158-48t58-130q0-12-1.5-23T536 472h72Z"/>
<glyph unicode="&#x20b8;" glyph-name="uni20B8" horiz-adv-x="650" d="M611 405H390V0H260V405H39V507H611V405Zm0 277V580H39V682H611Z"/>
<glyph unicode="&#xe3f;" glyph-name="uni0E3F" horiz-adv-x="650" d="M374 791V682q69-4 114-26t70-58 25-86q0-58-27.5-96T472 359q64-14 99-56t35-104q0-93-56-142T374 1V-108H261V-2Q170-1 79 0V682q81 1 182 2V791H374ZM209 104q43-2 115-2 78 0 112.5 23.5T471 198q0 35-15.5 57t-46 32T324 297H209V104Zm0 294H315q53 0 79.5 9.5T436 438t15 54q0 30-16.5 50.5t-46 29T295 580q-24 0-86-2V398Z"/>
<glyph unicode="&#x20ae;" glyph-name="uni20AE" horiz-adv-x="650" d="M559 477V388L390 349V274l169 39V224L390 185V0H260V155L91 117v89l169 38v75L91 281v89l169 38V573H29V682H621V573H390V438l169 39Z"/>
<glyph unicode="&#x20ba;" glyph-name="uni20BA" horiz-adv-x="650" d="M485 548V460L277 406V334l208 53V299L277 245V106q16-1 27-1 84 0 149 16t122 51V52Q522 23 453 8.5T295-6Q239-6 147 0V212L47 186v89l100 25v73L47 347v89l100 25V682H277V495l208 53Z"/>
<glyph unicode="&#x20bd;" glyph-name="uni20BD" horiz-adv-x="650" d="M44 107v88h84v77H44v92h84V682q85 1 230 2 86 0 145-24t88.5-70T621 479q0-67-31.5-113.5t-92-70T351 272H258V195H473V107H258V0H128V107H44ZM484 477q0 36-14.5 61T426 576t-72 13q-63 0-96-1V364h95q42 0 71.5 13T469 415t15 62Z"/>
<glyph unicode="&#x2116;" glyph-name="uni2116" horiz-adv-x="1198" d="M954 331q-89 0-140.5 50T762 514q0 80 54.5 132T957 698q88 0 140-49.5T1149 516q0-80-55-132.5T954 331Zm1 83q40 0 62 27t22 74-22 73.5T955 615t-61.5-26.5T872 515q0-48 22-74.5T955 414ZM781 193v89h349V193H781ZM521 0L301 364q-47 76-95 168h-3q8-123 8-315V0H89V682H261L470 337q41-64 95-168h2q-3 57-5 148.5T560 484V682H682V0H521Z"/>
<glyph unicode="#" glyph-name="numbersign" horiz-adv-x="700" d="M416 260l31 162H284L252 260H416ZM94 0l32 162H28v98H145l32 162H79v98H196l32 162H335L304 520H466l32 162H605L574 520h98V422H555L523 260h98V162H503L472 0H365l31 162H233L202 0H94Z"/>
<glyph unicode="0" glyph-name="zero" horiz-adv-x="697" d="M637 343q0-113-35-194T501 26 345-16q-91 0-155.5 41.5T92.5 147 60 339q0 113 35 194T196 656t156 42q91 0 155.5-41.5t97-121.5T637 343Zm-137-3q0 124-37.5 185T348 586q-76 0-113.5-60.5T197 342q0-124 37.5-185T348 96q77 0 114.5 60.5T500 340Z"/>
<glyph unicode="1" glyph-name="one" horiz-adv-x="451" d="M220 521q-31-23-73.5-34T46 476V582q55 0 93 11t61.5 32T238 684H355V0H220V521Z"/>
<glyph unicode="2" glyph-name="two" horiz-adv-x="624" d="M574 0H45V114q98 73 152.5 114t92 72.5 61.5 56T389.5 402t21 41 6.5 42q0 33-13.5 57.5T364 580t-62 13q-34 0-59.5-14T203 540.5 189 486q0-20 3-39t8-35H72q-7 13-10.5 31.5T58 484q0 63 31 111.5T176.5 671 307 698q75 0 131.5-25t86-72.5T554 491q0-33-6-59.5t-20-51-36-50T437.5 276 358 212 226 115v-3q84 4 188 4H574V0Z"/>
<glyph unicode="3" glyph-name="three" horiz-adv-x="643" d="M167 222q10-68 48-102T318 86q58 0 90.5 28T441 192q0 53-36.5 79T298 297H223V397h61q44 0 72 8.5T403 433q13 13 18.5 29.5T427 501q0 44-32 69.5T312 596q-56 0-89.5-30.5T179 473L52 493q20 101 87 153t175 52q76 0 132.5-22.5t86-65T562 513q0-58-31-99t-87-59v-3q66-12 101.5-52T581 196 549 83.5t-92.5-74T314-16Q190-16 121 36.5T36 195l131 27Z"/>
<glyph unicode="4" glyph-name="four" horiz-adv-x="649" d="M369 0V163H36V263L309 682H498V268H609V163H498V0H369ZM159 265q122 3 210 3V437q0 67 3 145h-5L159 265Z"/>
<glyph unicode="5" glyph-name="five" horiz-adv-x="624" d="M533 575H212L194 405h3q24 27 62.5 41T345 460q71 0 124-28.5T549.5 351 577 230q0-75-34-131T448 13.5 306-16q-99 0-166 43T43 153l121 40q21-52 57.5-79T308 87q40 0 69.5 16.5t46 47.5T440 224q0 40-16.5 71T377 342.5 310 359q-42 0-72.5-18T191 289H74l36 393H533V575Z"/>
<glyph unicode="6" glyph-name="six" horiz-adv-x="648" d="M468 508q-20 47-49.5 67.5T341 596q-73 0-108-62T194 337q23 45 68.5 69.5T371 431q108 0 167-55.5T597 219q0-104-73-169.5T335-16Q202-16 130.5 70.5T59 321q0 183 73.5 280T344 698q96 0 151.5-34T586 551L468 508ZM343 332q-59 0-92-33t-33-88q0-56 33-90.5T336 86q59 0 91 34.5T459 216q0 55-31 85.5T343 332Z"/>
<glyph unicode="7" glyph-name="seven" horiz-adv-x="610" d="M167 0q7 99 36.5 193.5t82 188T417 573H47V682H563V578Q478 475 424 380T341.5 191.5 309 0H167Z"/>
<glyph unicode="8" glyph-name="eight" horiz-adv-x="664" d="M457 498q0 44-34 71t-92 27q-57 0-91-27t-34-71q0-45 34-71.5T331 400q59 0 92.5 26.5T457 498Zm17-305q0 49-38 77.5T331 299q-66 0-103.5-28.5T190 193q0-50 38-78.5T332 86t104 29 38 78Zm137 1q0-65-34-112.5T479 9 329-16 180.5 7t-95 69T53 185q0 59 33 102.5T180 353v2q-50 17-79 56T72 502q0 58 32 102.5t92 69T334 698q80 0 138.5-23.5t89-67.5T592 505q0-48-29-88t-79-60v-2q62-19 94.5-60.5T611 194Z"/>
<glyph unicode="9" glyph-name="nine" horiz-adv-x="648" d="M172 178q22-49 54-70.5T308 86q73 0 108 62t39 197q-22-45-68-69.5T278 251q-109 0-167.5 55.5T52 463q0 104 73 169.5T314 698q133 0 204.5-86.5T590 361q0-183-73.5-280T305-16q-97 0-156.5 36.5T54 135l118 43ZM306 350q59 0 92 33t33 88q0 56-33 90.5T313 596q-59 0-91-34.5T190 466q0-55 30.5-85.5T306 350Z"/>
<glyph unicode="&#x2070;" glyph-name="zero.superior" horiz-adv-x="534" d="M474 560q0-109-56-170.5T264 328q-99 0-151.5 59.5T60 556t55.5 170.5T270 788q98 0 151-59.5T474 560Zm-117-2q0 66-23 100.5T267 693t-67.5-34.5T176 558t23.5-100.5T267 423t67 34.5T357 558Z"/>
<glyph unicode="&#xb9;" glyph-name="onesuperior" horiz-adv-x="374" d="M170 338V644q-19-15-50-23t-74-8v94q57 0 92.5 18.5T182 779H290V338H170Z"/>
<glyph unicode="&#xb2;" glyph-name="twosuperior" horiz-adv-x="525" d="M456 338H72V442q77 41 126 70t76.5 50.5 37.5 40T322 642q0 28-17.5 43.5T255 701t-49-14.5T189 644q0-23 7-43H82q-8 17-8 42 0 67 51 106t136 39q89 0 138.5-37.5T449 644q0-30-12.5-57t-39-52T329 485 227 433v-3q65 2 115 2H456V338Z"/>
<glyph unicode="&#xb3;" glyph-name="threesuperior" horiz-adv-x="523" d="M169 481q10-71 90-71 33 0 52 14.5T330 466q0 30-20.5 43.5T247 523H191v76h44q30 0 45.5 4T306 617q14 14 14 39 0 24-17 37.5T256 707q-35 0-55-17t-25-50L67 657q11 64 61 97.5T260 788q88 0 137-32t49-90q0-36-20.5-61T368 569v-2q91-20 91-106 0-60-54.5-96.5T259 328 118 361 58 463l111 18Z"/>
<glyph unicode="&#x2074;" glyph-name="four.superior" horiz-adv-x="518" d="M153 513q96 2 129 2v95q0 43 2 83h-3L153 513ZM282 338v85H44v97L228 778H401V516h73V423H401V338H282Z"/>
<glyph unicode="&#x2081;" glyph-name="uni2081" horiz-adv-x="374" d="M170-96V210q-19-15-50-23t-74-8v94q57 0 92.5 18.5T182 345H290V-96H170Z"/>
<glyph unicode="&#x2082;" glyph-name="uni2082" horiz-adv-x="525" d="M456-96H72V8q77 41 126 70t76.5 50.5 37.5 40T322 208q0 28-17.5 43.5T255 267t-49-14.5T189 210q0-23 7-43H82q-8 17-8 42 0 67 51 106t136 39q89 0 138.5-37.5T449 210q0-30-12.5-57t-39-52T329 51 227-1V-4q65 2 115 2H456V-96Z"/>
<glyph unicode="&#x2083;" glyph-name="uni2083" horiz-adv-x="523" d="M169 47q10-71 90-71 33 0 52 14.5T330 32q0 30-20.5 43.5T247 89H191v76h44q30 0 45.5 4T306 183q14 14 14 39 0 24-17 37.5T256 273q-35 0-55-17t-25-50L67 223q11 64 61 97.5T260 354q88 0 137-32t49-90q0-36-20.5-61T368 135v-2q91-20 91-106 0-60-54.5-96.5T259-106 118-73 58 29L169 47Z"/>
<glyph unicode="&#x2084;" glyph-name="uni2084" horiz-adv-x="518" d="M153 79q96 2 129 2v95q0 43 2 83h-3L153 79ZM282-96v85H44V86L228 344H401V82h73V-11H401V-96H282Z"/>
<glyph unicode="&#x2044;" glyph-name="fraction" horiz-adv-x="405" d="M542 778L-1-96H-131L412 778H542Z"/>
<glyph unicode="&#xbd;" glyph-name="onehalf" horiz-adv-x="1004" d="M170 338V644q-19-15-50-23t-74-8v94q57 0 92.5 18.5T182 779H290V338H170ZM780 778L237-96H107L650 778H780ZM936-96H552V8q77 41 126 70t76.5 50.5 37.5 40T802 208q0 28-17.5 43.5T735 267t-49-14.5T669 210q0-23 7-43H562q-8 17-8 42 0 67 51 106t136 39q89 0 138.5-37.5T929 210q0-30-12.5-57t-39-52T809 51 707-1V-4q65 2 115 2H936V-96Z"/>
<glyph unicode="&#xbc;" glyph-name="onequarter" horiz-adv-x="969" d="M170 338V644q-19-15-50-23t-74-8v94q57 0 92.5 18.5T182 779H290V338H170ZM780 778L237-96H107L650 778H780ZM604 79q96 2 129 2v95q0 43 2 83h-3L604 79ZM733-96v85H495V86L679 344H852V82h73V-11H852V-96H733Z"/>
<glyph unicode="&#xbe;" glyph-name="threequarters" horiz-adv-x="1097" d="M169 481q10-71 90-71 33 0 52 14.5T330 466q0 30-20.5 43.5T247 523H191v76h44q30 0 45.5 4T306 617q14 14 14 39 0 24-17 37.5T256 707q-35 0-55-17t-25-50L67 657q11 64 61 97.5T260 788q88 0 137-32t49-90q0-36-20.5-61T368 569v-2q91-20 91-106 0-60-54.5-96.5T259 328 118 361 58 463l111 18ZM909 778L366-96H236L779 778H909ZM733 79q96 2 129 2v95q0 43 2 83h-3L733 79ZM862-96v85H624V86L808 344H981V82h73V-11H981V-96H862Z"/>
<glyph unicode="%" glyph-name="percent" horiz-adv-x="1121" d="M474 560q0-109-56-170.5T264 328q-99 0-151.5 59.5T60 556t55.5 170.5T270 788q98 0 151-59.5T474 560Zm-117-2q0 66-23 100.5T267 693t-67.5-34.5T176 558t23.5-100.5T267 423t67 34.5T357 558ZM897 778L354-96H224L767 778H897Zm165-652q0-109-56-170.5T852-106q-99 0-151.5 59.5T648 122t55.5 170.5T858 354q98 0 151-59.5T1062 126Zm-117-2q0 66-23 100.5T855 259t-67.5-34.5T764 124 787.5 23.5 855-11t67 34.5T945 124Z"/>
<glyph unicode="&#x2030;" glyph-name="perthousand" horiz-adv-x="1621" d="M474 560q0-109-56-170.5T264 328q-99 0-151.5 59.5T60 556t55.5 170.5T270 788q98 0 151-59.5T474 560Zm-117-2q0 66-23 100.5T267 693t-67.5-34.5T176 558t23.5-100.5T267 423t67 34.5T357 558ZM897 778L354-96H224L767 778H897Zm165-652q0-109-56-170.5T852-106q-99 0-151.5 59.5T648 122t55.5 170.5T858 354q98 0 151-59.5T1062 126Zm-117-2q0 66-23 100.5T855 259t-67.5-34.5T764 124 787.5 23.5 855-11t67 34.5T945 124Zm616 2q0-109-56-170.5T1351-106q-99 0-151.5 59.5T1147 122t55.5 170.5T1357 354q98 0 151-59.5T1561 126Zm-117-2q0 66-23 100.5T1354 259t-67.5-34.5T1263 124t23.5-100.5T1354-11t67 34.5T1444 124Z"/>
<glyph unicode="+" glyph-name="plus" horiz-adv-x="650" d="M267 50V271H53V373H267V592H383V373H597V271H383V50H267Z"/>
<glyph unicode="&#x2212;" glyph-name="minus" horiz-adv-x="650" d="M597 271H53V373H597V271Z"/>
<glyph unicode="=" glyph-name="equal" horiz-adv-x="650" d="M587 371H63V472H587V371Zm0-199H63V273H587V172Z"/>
<glyph unicode="&#x2260;" glyph-name="notequal" horiz-adv-x="650" d="M119 24l75 148H63V273H242l49 98H63V472H339l68 141H525L455 472H587V371H406l-48-98H587V172H309L238 24H119Z"/>
<glyph unicode="&#x2248;" glyph-name="approxequal" horiz-adv-x="650" d="M430 132q-29 0-55.5 7t-64 27-56 25.5T217 197q-25 0-50-13t-55-42L48 211q38 45 82.5 69T220 304q29 0 55.5-7T340 270t56.5-25.5T433 239q25 0 50 12.5T539 293l63-69q-38-44-82.5-68T430 132Zm0 208q-29 0-55.5 7T310 374t-56.5 25.5T217 405q-25 0-50-13t-55-41L48 420q38 44 82.5 68T220 512q29 0 55.5-7t64-27 56-25.5T433 447q25 0 49.5 13T539 502l63-69q-38-45-82.5-69T430 340Z"/>
<glyph unicode="&lt;" glyph-name="less" horiz-adv-x="650" d="M587 64L63 264V380L587 580V458q-180-67-259.5-94.5T200 324v-2q48-12 128-40t259-94V64Z"/>
<glyph unicode="&gt;" glyph-name="greater" horiz-adv-x="650" d="M63 580L587 380V264L63 64V186q174 65 255.5 93.5T450 320v2q-48 12-128 40T63 456V580Z"/>
<glyph unicode="&#xb1;" glyph-name="plusminus" horiz-adv-x="650" d="M587 0H63V101H587V0ZM267 184V383H63V485H267V682H383V485H587V383H383V184H267Z"/>
<glyph unicode="&#x2264;" glyph-name="lessequal" horiz-adv-x="650" d="M587 175L63 374V491L587 691V569q-180-67-259.5-95T200 434v-2q48-11 128-39t259-95V175ZM587 0H63V101H587V0Z"/>
<glyph unicode="&#x2265;" glyph-name="greaterequal" horiz-adv-x="650" d="M63 691L587 491V374L63 175V297q180 67 259.5 95T450 432v2q-48 11-128 39T63 568V691ZM587 0H63V101H587V0Z"/>
<glyph unicode="&#xac;" glyph-name="logicalnot" horiz-adv-x="650" d="M460 76V271H53V373H577V76H460Z"/>
<glyph unicode="&#x221e;" glyph-name="infinity" horiz-adv-x="1009" d="M274 207q26 0 50.5 11T375 251t63 67q-38 49-63 73t-50 35-51 11q-48 0-75.5-31.5T171 322q0-53 27.5-84T274 207ZM736 437q-26 0-51.5-11T633 392.5 571 326q38-50 63.5-73.5T685 218t51-11q47 0 74.5 31.5T838 322q0 53-27.5 84T736 437ZM263 106q-97 0-158.5 59T43 320q0 98 63.5 158T273 538q65 0 121-31T510 403q63 73 118.5 104T746 538q98 0 159-59t61-153q0-100-63.5-160T735 106q-65 0-120.5 30.5T498 240q-63-73-118.5-103.5T263 106Z"/>
<glyph unicode="&#x2202;" glyph-name="partialdiff" horiz-adv-x="603" d="M286-14q-76 0-131.5 31.5t-85 90T40 243 69 378.5t83.5 90T280 500q51 0 92-21.5T436 420h1q-5 20-12 46t-14 43-16 31.5T374 568q-21 20-47 29.5T266 607q-68 0-129-20V691q58 17 136 17 94 0 156-40t93-122 31-209q0-115-30-193.5t-89.5-118T286-14Zm3 100q37 0 65 19t43.5 54.5T413 243t-15.5 84T354 381t-64 18q-37 0-65-18t-42.5-53.5T168 242q0-46 14.5-82t42-55T289 86Z"/>
<glyph unicode="&#x222b;" glyph-name="integral" horiz-adv-x="367" d="M94-203q-25 0-51.5 4T-2-189L8-91q14-5 33-9t35-4q24 0 35.5 14T123-48V642q0 70 38.5 108T272 788q27 0 52-3.5T368 774l-9-98q-16 6-34.5 9.5T291 689q-24 0-35.5-13.5T244 633V-57q1-70-38-108T94-203Z"/>
<glyph unicode="&#x221a;" glyph-name="radical" horiz-adv-x="711" d="M241-96L119 242H15V344H222l43-124q25-73 36-112t18-73h3q7 32 21.5 80T391 256L564 778H703L391-96H241Z"/>
<glyph unicode="&#x220f;" glyph-name="product" horiz-adv-x="840" d="M580-192V667H261V-192H131V667H6V778H834V667H710V-192H580Z"/>
<glyph unicode="&#x2211;" glyph-name="summation" horiz-adv-x="684" d="M44-84L317 302 57 671V778H617V669q-87 0-195 0.5T225 671L481 311 200-84q93 1 215.5 1.5T637-82V-192H44V-84Z"/>
<glyph unicode="&#x25ca;" glyph-name="lozenge" horiz-adv-x="657" d="M332 113q10 24 38.5 71T468 339q-67 104-97.5 154T327 569h-2q-10-24-38.5-71T189 343q67-104 97.5-154T330 113h2ZM256 0L41 341 256 682H401L616 341 401 0H256Z"/>
<glyph unicode="&#x2113;" glyph-name="afii61289" horiz-adv-x="495" d="M268-14q-68 0-110 35.5T95 133L53 115 13 208l65 29q-4 49-4 118 0 126 20 205.5T156 678t113 38q53 0 89-23t53.5-68T429 513q0-116-54-195.5T206 182q9-50 27.5-72T285 88q24 0 46.5 9.5T377 126l46-80Q391 17 351.5 1.5T268-14h0Zm38 523q0 57-10.5 81.5T261 615q-25 0-38.5-27t-20-83.5T196 359q0-44 0-66 55 33 82.5 86.5T306 509Z"/>
<glyph unicode="&#x212e;" glyph-name="estimated" horiz-adv-x="939" d="M468-16Q375-16 298 9T165.5 80 80 192 50 339 81 486.5 168 600t133.5 72.5T471 698q93 0 170-25t132-71 85.5-111.5T889 344q0-10-0.5-21T886 302H264V182q0-15 3.5-23.5T281 143q29-23 76-39T473 88q73 0 133.5 22.5T707 174H869q-26-44-66-79T711.5 35 598-3 468-16ZM674 395V504q0 14-2.5 21T661 538q-34 27-82 42T469 595q-61 0-109.5-15.5T277 537q-7-5-10-13t-3-22V395H674Z"/>
<glyph unicode="&#xf8ff;" glyph-name="uniF8FF" horiz-adv-x="825" d="M526 304H374v76H526v76H374v76H602V152H526V304ZM222 532h76V228H450V152H222V532ZM70 684H754V0H70V684ZM146 76H678V608H146V76Z"/>
</font>
</defs>
</svg>
